<svg aria-hidden="true" style="position: absolute; width: 0; height: 0; overflow: hidden;" version="1.1" xmlns="http://www.w3.org/2000/svg" xmlns:xlink="http://www.w3.org/1999/xlink">
<defs>
<symbol id="icon-star-2" viewBox="0 0 32 32">
<path fill="#f5a623" style="fill: var(--color1, #f5a623)" d="M15.645 9.621v10.4l4.2 2.567-1.1-4.8 3.7-3.2-4.867-0.433-1.933-4.533zM15.645 21.59l-4.84 2.923c-0.142 0.070-0.274 0.099-0.396 0.085s-0.239-0.056-0.353-0.125c-0.116-0.071-0.203-0.172-0.261-0.301s-0.064-0.272-0.016-0.425l1.288-5.48-4.26-3.693c-0.12-0.098-0.199-0.215-0.237-0.351s-0.030-0.266 0.025-0.391c0.055-0.124 0.128-0.227 0.22-0.307 0.092-0.077 0.217-0.13 0.373-0.157l5.621-0.491 2.192-5.189c0.060-0.147 0.148-0.252 0.261-0.317s0.241-0.097 0.383-0.097c0.141 0 0.269 0.032 0.384 0.097s0.201 0.171 0.26 0.317l2.192 5.189 5.62 0.491c0.157 0.027 0.282 0.079 0.375 0.159s0.166 0.18 0.221 0.305c0.054 0.124 0.062 0.255 0.024 0.391s-0.117 0.253-0.237 0.351l-4.26 3.693 1.288 5.48c0.050 0.152 0.045 0.293-0.015 0.424s-0.147 0.231-0.263 0.301c-0.114 0.071-0.232 0.113-0.353 0.127s-0.253-0.015-0.395-0.085l-4.841-2.923z"></path>
</symbol>
<symbol id="icon-star-1" viewBox="0 0 32 32">
<path fill="#f5a623" style="fill: var(--color1, #f5a623)" d="M16 20.093l-4.036 3.073c-0.142 0.098-0.285 0.141-0.428 0.129s-0.275-0.052-0.395-0.121c-0.12-0.069-0.211-0.174-0.273-0.313s-0.064-0.288-0.004-0.444l1.541-5.064-3.833-2.767c-0.148-0.092-0.242-0.21-0.283-0.353s-0.034-0.286 0.021-0.428c0.055-0.142 0.138-0.256 0.248-0.343s0.244-0.129 0.403-0.129h4.813l1.573-5.169c0.060-0.157 0.148-0.281 0.261-0.371s0.243-0.133 0.391-0.133c0.147 0 0.278 0.044 0.391 0.133 0.114 0.090 0.201 0.213 0.261 0.371l1.573 5.169h4.813c0.157 0 0.292 0.043 0.403 0.129s0.194 0.2 0.248 0.343 0.061 0.285 0.021 0.428c-0.042 0.144-0.136 0.262-0.283 0.355l-3.833 2.765 1.541 5.064c0.059 0.157 0.058 0.305-0.004 0.444s-0.153 0.243-0.273 0.313c-0.12 0.070-0.252 0.111-0.395 0.121s-0.286-0.032-0.428-0.129l-4.036-3.073z"></path>
</symbol>
<symbol id="icon-double-quotes" viewBox="0 0 32 32">
<path fill="#eabfc0" style="fill: var(--color2, #eabfc0)" opacity="0.6" d="M6.111 23.095c-1.373-1.459-2.111-3.095-2.111-5.747 0-4.667 3.276-8.849 8.040-10.917l1.191 1.837c-4.447 2.405-5.316 5.527-5.663 7.495 0.716-0.371 1.653-0.5 2.572-0.415 2.405 0.223 4.301 2.197 4.301 4.652 0 1.238-0.492 2.425-1.367 3.3s-2.062 1.367-3.3 1.367c-0.684-0.006-1.361-0.148-1.99-0.418s-1.198-0.662-1.674-1.154zM19.444 23.095c-1.373-1.459-2.111-3.095-2.111-5.747 0-4.667 3.276-8.849 8.040-10.917l1.191 1.837c-4.447 2.405-5.316 5.527-5.663 7.495 0.716-0.371 1.653-0.5 2.572-0.415 2.405 0.223 4.301 2.197 4.301 4.652 0 1.238-0.492 2.425-1.367 3.3s-2.062 1.367-3.3 1.367c-0.685-0.006-1.361-0.148-1.99-0.418s-1.198-0.662-1.674-1.154z"></path>
</symbol>
<symbol id="icon-location" viewBox="0 0 32 32">
<path fill="#000" style="fill: var(--color1, #000)" d="M22.052 15.651l-0.015 0.040 0.013-0.037 0.002-0.004z"></path>
<path fill="#d1d1d1" style="fill: var(--color2, #d1d1d1)" d="M22.052 15.651l1.246 0.475-2.416-1.114 1.17 0.639zM22.037 15.691l-1.252-0.457 2.498 0.932-1.246-0.475zM22.050 15.654l-1.17-0.639-0.048 0.088-0.034 0.094 1.252 0.457zM22.052 15.651l-1.246-0.475-0.015 0.040 2.492 0.949 0.015-0.040-1.246-0.475zM22.037 15.691l1.252 0.457 0.013-0.037-2.505-0.915-0.013 0.037 1.252 0.457zM22.050 15.654l1.17 0.639 0.002-0.003-2.341-1.278-0.002 0.004 1.17 0.639z"></path>
<path fill="#000" style="fill: var(--color1, #000); stroke: var(--color2, #d1d1d1)" stroke="#d1d1d1" stroke-linejoin="miter" stroke-linecap="butt" stroke-miterlimit="4" stroke-width="1.3333" d="M16 0.667c4.753 0 8.681 3.769 8.922 8.452l0.012 0.457c-0.001 1.141-0.223 2.271-0.655 3.327l-0.007 0.016-0.005 0.016c-0.094 0.267-0.197 0.522-0.332 0.767l-6.762 11.507c-0.404 0.547-0.683 0.823-1.109 0.866-0.189 0.019-0.419-0.045-0.616-0.176-0.157-0.104-0.305-0.24-0.463-0.426l-0.164-0.203-6.147-10.619c-1.010-1.442-1.607-3.195-1.607-5.074 0-4.891 4.027-8.909 8.934-8.909zM16 0.934c-4.767 0-8.667 3.887-8.667 8.642 0 1.843 0.587 3.549 1.582 4.956l0.004 0.005 6.107 10.559 0.030 0.036c0.121 0.154 0.249 0.295 0.367 0.404 0.035 0.048 0.074 0.093 0.121 0.13 0.121 0.096 0.242 0.124 0.294 0.134 0.013 0.003 0.027 0.001 0.039 0.003l0.003 0.001c0.010 0.002 0.038 0.008 0.074 0.011 0.005 0 0.144 0.016 0.299-0.046 0.091-0.036 0.248-0.127 0.345-0.318 0.095-0.092 0.214-0.214 0.34-0.38l0.023-0.031 0.021-0.034 6.715-11.427c0.13-0.236 0.237-0.495 0.328-0.758l0.001-0.005-0.001-0.001 0.003-0.003-0.001-0.001c0.421-1.027 0.639-2.125 0.639-3.234 0-4.755-3.899-8.642-8.667-8.642zM15.94 25.807c-0.014-0.001-0.027-0.001-0.038-0.003 0.013 0.001 0.026 0.002 0.038 0.003zM15.856 25.797c-0.003-0.001-0.007-0.001-0.009-0.001s-0.006-0.001-0.006-0.001h0.003c0.002 0 0.008 0.001 0.013 0.003zM16 4.779c2.661 0 4.809 2.144 4.809 4.797s-2.148 4.796-4.809 4.796c-2.661-0-4.81-2.143-4.81-4.796s2.149-4.797 4.81-4.797zM16 5.046c-2.547 0-4.543 1.988-4.543 4.53s1.995 4.528 4.543 4.529c2.548 0 4.543-1.987 4.543-4.529s-1.995-4.53-4.543-4.53z"></path>
<path fill="#000" style="fill: var(--color1, #000); stroke: var(--color2, #d1d1d1)" stroke="#d1d1d1" stroke-linejoin="miter" stroke-linecap="butt" stroke-miterlimit="4" stroke-width="1.3333" d="M25.384 23.842c0.345 0.14 0.663 0.288 0.951 0.445 1.27 0.697 1.799 1.464 1.799 2.227 0 1.092-0.975 2.3-3.182 3.269-2.153 0.945-5.256 1.551-8.952 1.551s-6.798-0.605-8.95-1.551c-2.207-0.969-3.182-2.177-3.182-3.269 0-0.763 0.529-1.53 1.799-2.227 0.287-0.157 0.604-0.305 0.949-0.445-0.349 0.189-0.657 0.399-0.902 0.635-0.349 0.337-0.62 0.777-0.62 1.306l0.006 0.137c0.059 0.675 0.55 1.189 1.091 1.555 0.6 0.405 1.426 0.744 2.385 1.018 1.928 0.551 4.552 0.883 7.423 0.883s5.497-0.332 7.425-0.883c0.959-0.274 1.784-0.613 2.384-1.018 0.577-0.39 1.099-0.949 1.099-1.691 0-0.531-0.273-0.972-0.624-1.31-0.244-0.235-0.552-0.443-0.9-0.632z"></path>
</symbol>
<symbol id="icon-email" viewBox="0 0 32 32">
<path fill="#000" style="fill: var(--color1, #000)" d="M4 6.667v-0.667c-0.177 0-0.346 0.070-0.471 0.195s-0.195 0.295-0.195 0.471h0.667zM28 6.667h0.667c0-0.177-0.070-0.346-0.195-0.471s-0.295-0.195-0.471-0.195v0.667zM4 7.333h24v-1.333h-24v1.333zM27.333 6.667v16h1.333v-16h-1.333zM25.333 24.667h-18.667v1.333h18.667v-1.333zM4.667 22.667v-16h-1.333v16h1.333zM6.667 24.667c-0.53 0-1.039-0.211-1.414-0.586s-0.586-0.884-0.586-1.414h-1.333c0 0.884 0.351 1.732 0.976 2.357s1.473 0.976 2.357 0.976v-1.333zM27.333 22.667c0 0.53-0.211 1.039-0.586 1.414s-0.884 0.586-1.414 0.586v1.333c0.884 0 1.732-0.351 2.357-0.976s0.976-1.473 0.976-2.357h-1.333z"></path>
<path fill="#d1d1d1" style="fill: var(--color2, #d1d1d1)" d="M27.333 22.667v0.667h1.333v-1.333h-1.333v0.667zM6.667 24.667h-0.667v1.333h1.333v-1.333h-0.667zM25.333 26h0.667v-1.333h-1.333v1.333h0.667zM3.333 22.667v0.667h1.333v-1.333h-1.333v0.667zM4 6.667v1.333h1.333v-1.333h-1.333zM28 6.667h-1.333v1.333h1.333v-1.333zM4 7.333h-1.333v1.333h1.333v-1.333zM28 7.333v1.333h1.333v-1.333h-1.333zM27.333 6.667v-1.333h-1.333v1.333h1.333zM25.333 26v0zM4.667 6.667h1.333v-1.333h-1.333v1.333zM4 6.667h1.333v-0.667h-2.667v0.667h1.333zM4 6v-1.333c-0.53 0-1.039 0.211-1.414 0.586l1.886 1.886c-0.125 0.125-0.295 0.195-0.471 0.195v-1.333zM3.529 6.195l-0.943-0.943c-0.375 0.375-0.586 0.884-0.586 1.414h2.667c0 0.177-0.070 0.346-0.195 0.471l-0.943-0.943zM3.333 6.667v1.333h0.667v-2.667h-0.667v1.333zM28 6.667v1.333h0.667v-2.667h-0.667v1.333zM28.667 6.667h1.333c0-0.53-0.211-1.039-0.586-1.414l-1.886 1.886c-0.125-0.125-0.195-0.295-0.195-0.471h1.333zM28.471 6.195l0.943-0.943c-0.375-0.375-0.884-0.586-1.414-0.586v2.667c-0.177 0-0.346-0.070-0.471-0.195l0.943-0.943zM28 6h-1.333v0.667h2.667v-0.667h-1.333zM4 7.333v1.333h24v-2.667h-24v1.333zM28 7.333h1.333v-1.333h-2.667v1.333h1.333zM28 6v-1.333h-24v2.667h24v-1.333zM4 6h-1.333v1.333h2.667v-1.333h-1.333zM27.333 6.667h-1.333v16h2.667v-16h-1.333zM28.667 22.667h1.333v-16h-2.667v16h1.333zM28.667 6.667v-1.333h-1.333v2.667h1.333v-1.333zM25.333 24.667v-1.333h-18.667v2.667h18.667v-1.333zM6.667 26v1.333h18.667v-2.667h-18.667v1.333zM4.667 22.667h1.333v-16h-2.667v16h1.333zM4.667 6.667v-1.333h-1.333v2.667h1.333v-1.333zM3.333 6.667h-1.333v16h2.667v-16h-1.333zM6.667 24.667v-1.333c-0.177 0-0.346-0.070-0.471-0.195l-1.886 1.886c0.625 0.625 1.473 0.976 2.357 0.976v-1.333zM5.252 24.081l0.943-0.943c-0.125-0.125-0.195-0.295-0.195-0.471h-2.667c0 0.884 0.351 1.732 0.976 2.357l0.943-0.943zM3.333 22.667h-1.333c0 1.238 0.492 2.425 1.367 3.3l1.886-1.886c-0.375-0.375-0.586-0.884-0.586-1.414h-1.333zM4.31 25.024l-0.943 0.943c0.875 0.875 2.062 1.367 3.3 1.367v-2.667c-0.53 0-1.039-0.211-1.414-0.586l-0.943 0.943zM27.333 22.667h-1.333c0 0.177-0.070 0.346-0.195 0.471l1.886 1.886c0.625-0.625 0.976-1.473 0.976-2.357h-1.333zM26.748 24.081l-0.943-0.943c-0.125 0.125-0.295 0.195-0.471 0.195v2.667c0.884 0 1.732-0.351 2.357-0.976l-0.943-0.943zM25.333 26v1.333c1.238 0 2.425-0.492 3.3-1.367l-1.886-1.886c-0.375 0.375-0.884 0.586-1.414 0.586v1.333zM27.69 25.024l0.943 0.943c0.875-0.875 1.367-2.062 1.367-3.3h-2.667c0 0.53-0.211 1.039-0.586 1.414l0.943 0.943z"></path>
<path fill="none" stroke="#d1d1d1" style="stroke: var(--color2, #d1d1d1)" stroke-linejoin="round" stroke-linecap="round" stroke-miterlimit="4" stroke-width="1.3333" d="M4 6.667l12 12 12-12"></path>
</symbol>
<symbol id="icon-phone" viewBox="0 0 32 32">
<path fill="#d1d1d1" style="fill: var(--color2, #d1d1d1)" d="M26 29.333c0.53 0 1.039-0.211 1.414-0.586s0.586-0.884 0.586-1.414v-4.667c0-0.53-0.211-1.039-0.586-1.414s-0.884-0.586-1.414-0.586c-1.56 0-3.093-0.24-4.56-0.733-0.351-0.111-0.725-0.123-1.082-0.036s-0.684 0.27-0.944 0.53l-1.92 1.92c-3.317-1.81-6.043-4.536-7.853-7.853l1.907-1.907c0.547-0.52 0.747-1.293 0.507-2.040-0.48-1.453-0.72-2.987-0.72-4.547 0-0.53-0.211-1.039-0.586-1.414s-0.884-0.586-1.414-0.586h-4.667c-0.53 0-1.039 0.211-1.414 0.586s-0.586 0.884-0.586 1.414c0 12.867 10.467 23.333 23.333 23.333zM4.667 5.333h4.667c0.177 0 0.346 0.070 0.471 0.195s0.195 0.295 0.195 0.471c0 1.707 0.267 3.373 0.787 4.96 0.067 0.187 0.053 0.453-0.16 0.667l-2.627 2.613c2.2 4.307 5.427 7.533 9.747 9.76l2.6-2.627c0.187-0.187 0.44-0.24 0.68-0.173 1.6 0.533 3.267 0.8 4.973 0.8 0.177 0 0.346 0.070 0.471 0.195s0.195 0.295 0.195 0.471v4.667c0 0.177-0.070 0.346-0.195 0.471s-0.295 0.195-0.471 0.195c-12.133 0-22-9.867-22-22 0-0.177 0.070-0.346 0.195-0.471s0.295-0.195 0.471-0.195z"></path>
</symbol>
<symbol id="icon-pinterest" viewBox="0 0 32 32">
<path fill="#d1d1d1" style="fill: var(--color1, #d1d1d1)" d="M11.323 25.588c0.031-0.449 0.095-0.894 0.191-1.335 0.084-0.393 0.339-1.507 0.712-3.12l0.009-0.040 0.516-2.224c0.105-0.453 0.187-0.805 0.241-0.923-0.257-0.599-0.386-1.245-0.379-1.897 0-1.783 1.008-3.164 2.315-3.164 0.48-0.008 0.939 0.2 1.256 0.568s0.464 0.857 0.403 1.328c0 0.604-0.113 1.064-0.604 2.713-0.076 0.253-0.149 0.507-0.22 0.761-0.065 0.231-0.124 0.463-0.177 0.696-0.128 0.515-0.011 1.063 0.316 1.473 0.158 0.202 0.363 0.362 0.596 0.468s0.489 0.154 0.745 0.141c1.989 0 3.467-2.647 3.467-6.064 0-2.627-1.72-4.365-4.576-4.365-0.715-0.026-1.427 0.096-2.093 0.359s-1.269 0.661-1.773 1.169c-0.514 0.519-0.92 1.136-1.194 1.814s-0.409 1.403-0.4 2.134c-0.034 0.788 0.208 1.563 0.683 2.192 0.241 0.187 0.333 0.511 0.233 0.787-0.055 0.224-0.187 0.736-0.236 0.907-0.014 0.084-0.047 0.163-0.097 0.232s-0.115 0.125-0.19 0.164c-0.073 0.038-0.154 0.058-0.236 0.058s-0.163-0.019-0.237-0.056c-1.547-0.639-2.395-2.371-2.395-4.587 0-3.98 3.321-7.445 8.256-7.445 4.18 0 7.308 3.105 7.308 6.853 0 4.709-2.576 8.139-6.253 8.139-0.523 0.016-1.043-0.091-1.517-0.314s-0.889-0.553-1.211-0.965l-0.057 0.236-0.279 1.147c-0.195 0.8-0.331 1.356-0.384 1.564-0.142 0.475-0.32 0.937-0.533 1.387 2.653 0.632 5.448 0.224 7.809-1.14s4.111-3.582 4.888-6.196c0.777-2.614 0.524-5.427-0.709-7.86s-3.35-4.302-5.918-5.222-5.39-0.822-7.887 0.275c-2.497 1.097-4.479 3.108-5.539 5.621s-1.117 5.337-0.159 7.89c0.958 2.554 2.857 4.642 5.308 5.839zM16 29.333c-7.364 0-13.333-5.969-13.333-13.333s5.969-13.333 13.333-13.333c7.364 0 13.333 5.969 13.333 13.333s-5.969 13.333-13.333 13.333z"></path>
</symbol>
<symbol id="icon-tiktok" viewBox="0 0 32 32">
<path fill="#d1d1d1" style="fill: var(--color1, #d1d1d1)" d="M8.907 3.904c2.347-0.261 4.704-0.475 7.093-0.475s4.745 0.215 7.093 0.475c1.284 0.149 2.48 0.728 3.393 1.643s1.489 2.112 1.636 3.397c0.249 2.331 0.45 4.679 0.45 7.056s-0.201 4.725-0.45 7.056c-0.146 1.284-0.723 2.482-1.636 3.397s-2.109 1.494-3.393 1.643c-2.347 0.261-4.704 0.475-7.093 0.475s-4.745-0.215-7.093-0.475c-1.284-0.149-2.48-0.728-3.393-1.643s-1.489-2.112-1.636-3.397c-0.249-2.331-0.45-4.679-0.45-7.056s0.201-4.725 0.45-7.056c0.146-1.284 0.723-2.482 1.636-3.397s2.109-1.494 3.393-1.643zM16 0.571c-2.549 0-5.033 0.229-7.406 0.491-1.932 0.22-3.732 1.089-5.105 2.466s-2.238 3.179-2.454 5.111c-0.249 2.361-0.464 4.83-0.464 7.36s0.215 4.999 0.466 7.36c0.216 1.931 1.080 3.732 2.453 5.108s3.171 2.246 5.102 2.466c2.375 0.265 4.859 0.494 7.408 0.494s5.033-0.229 7.406-0.491c1.932-0.221 3.732-1.091 5.104-2.468s2.237-3.179 2.452-5.112c0.251-2.359 0.466-4.827 0.466-7.358s-0.215-4.999-0.466-7.36c-0.215-1.932-1.080-3.733-2.452-5.11s-3.171-2.246-5.102-2.467c-2.375-0.263-4.859-0.491-7.408-0.491zM19.152 7.467c-0.096-0.409-0.339-0.768-0.683-1.009s-0.764-0.348-1.181-0.3c-0.417 0.048-0.802 0.247-1.082 0.56s-0.435 0.718-0.436 1.138v11.831c0 0.542-0.161 1.073-0.462 1.524s-0.729 0.803-1.231 1.010c-0.501 0.208-1.052 0.262-1.584 0.157s-1.021-0.367-1.404-0.75c-0.384-0.383-0.645-0.872-0.751-1.404s-0.052-1.083 0.155-1.585c0.207-0.501 0.558-0.93 1.009-1.231s0.981-0.463 1.523-0.463c0.455 0 0.891-0.181 1.212-0.502s0.502-0.758 0.502-1.212-0.181-0.891-0.502-1.212c-0.322-0.322-0.758-0.502-1.212-0.502-1.221 0-2.414 0.362-3.429 1.040s-1.806 1.642-2.273 2.77-0.589 2.369-0.351 3.566c0.238 1.197 0.826 2.297 1.689 3.16s1.963 1.451 3.16 1.689c1.197 0.238 2.438 0.116 3.566-0.351s2.091-1.258 2.77-2.273 1.040-2.208 1.040-3.429v-6.283c1.191 0.775 2.624 1.189 4.24 1.189 0.455 0 0.891-0.181 1.212-0.502s0.502-0.758 0.502-1.212-0.181-0.891-0.502-1.212c-0.322-0.322-0.758-0.502-1.212-0.502-1.257 0-2.155-0.386-2.807-0.967-0.672-0.599-1.193-1.511-1.477-2.729z"></path>
</symbol>
<symbol id="icon-instagram" viewBox="0 0 32 32">
<path fill="#d1d1d1" style="fill: var(--color1, #d1d1d1)" d="M10.4 2.667h11.2c4.267 0 7.733 3.467 7.733 7.733v11.2c0 2.051-0.815 4.018-2.265 5.468s-3.417 2.265-5.468 2.265h-11.2c-4.267 0-7.733-3.467-7.733-7.733v-11.2c0-2.051 0.815-4.018 2.265-5.468s3.417-2.265 5.468-2.265zM10.133 5.333c-1.273 0-2.494 0.506-3.394 1.406s-1.406 2.121-1.406 3.394v11.733c0 2.653 2.147 4.8 4.8 4.8h11.733c1.273 0 2.494-0.506 3.394-1.406s1.406-2.121 1.406-3.394v-11.733c0-2.653-2.147-4.8-4.8-4.8h-11.733zM23 7.333c0.442 0 0.866 0.176 1.179 0.488s0.488 0.737 0.488 1.179-0.176 0.866-0.488 1.178c-0.313 0.313-0.737 0.488-1.179 0.488s-0.866-0.176-1.179-0.488-0.488-0.736-0.488-1.178c0-0.442 0.176-0.866 0.488-1.178s0.736-0.488 1.179-0.488zM16 9.333c1.768 0 3.464 0.702 4.714 1.953s1.953 2.946 1.953 4.714c0 1.768-0.702 3.464-1.953 4.714s-2.946 1.953-4.714 1.953-3.464-0.702-4.714-1.953c-1.25-1.25-1.953-2.946-1.953-4.714s0.702-3.464 1.953-4.714 2.946-1.953 4.714-1.953zM16 12c-1.061 0-2.078 0.421-2.828 1.172s-1.172 1.768-1.172 2.828c0 1.061 0.421 2.078 1.172 2.828s1.768 1.172 2.828 1.172 2.078-0.421 2.828-1.172c0.75-0.75 1.172-1.768 1.172-2.828s-0.421-2.078-1.172-2.828c-0.75-0.75-1.768-1.172-2.828-1.172z"></path>
</symbol>
<symbol id="icon-cake" viewBox="0 0 31 32">
<path fill="#d94c5a" style="fill: var(--color1, #d94c5a)" d="M27.261 13.391c0-0.634-0.252-1.242-0.7-1.691s-1.057-0.7-1.691-0.7h-9.087v-1.948c0.797-0.115 1.525-0.513 2.052-1.122s0.817-1.386 0.817-2.191c0-3.090-2.957-5.097-3.082-5.181-0.079-0.052-0.171-0.080-0.265-0.080s-0.187 0.028-0.265 0.080c-0.126 0.084-3.082 2.091-3.082 5.181 0 0.805 0.29 1.583 0.817 2.191s1.256 1.007 2.052 1.122v1.948h-9.087c-0.634 0-1.242 0.252-1.691 0.7s-0.7 1.057-0.7 1.691v2.789c0 0.995 0.338 1.96 0.957 2.739v4.993c0 0.634 0.252 1.242 0.7 1.691s1.057 0.7 1.691 0.7h17.217c0.634 0 1.242-0.252 1.691-0.7s0.7-1.057 0.7-1.691v-4.993c0.619-0.779 0.956-1.744 0.957-2.739v-2.79zM12.913 5.739c0-2.079 1.718-3.65 2.391-4.185 0.673 0.536 2.391 2.107 2.391 4.185 0 0.634-0.252 1.242-0.7 1.691s-1.057 0.7-1.691 0.7-1.242-0.252-1.691-0.7c-0.448-0.449-0.7-1.057-0.7-1.691zM23.913 25.348h-17.217c-0.381 0-0.745-0.151-1.015-0.42s-0.42-0.634-0.42-1.015v-4.097c0.669 0.465 1.458 0.725 2.272 0.75 0.81 0.021 1.609-0.186 2.307-0.598s1.266-1.012 1.639-1.731c0.362 0.703 0.911 1.292 1.586 1.703s1.45 0.629 2.241 0.629 1.566-0.218 2.241-0.629c0.675-0.411 1.224-1.001 1.586-1.703 0.364 0.701 0.913 1.289 1.588 1.699s1.449 0.629 2.238 0.63h0.12c0.814-0.024 1.603-0.284 2.272-0.748v4.096c0 0.381-0.151 0.745-0.42 1.015s-0.634 0.42-1.015 0.42zM26.304 16.181c0 1.84-1.46 3.378-3.253 3.427-0.447 0.013-0.893-0.065-1.31-0.227s-0.797-0.407-1.118-0.719c-0.321-0.312-0.576-0.685-0.75-1.098s-0.264-0.855-0.264-1.303c0-0.127-0.050-0.248-0.14-0.338s-0.211-0.14-0.338-0.14-0.248 0.050-0.338 0.14c-0.090 0.090-0.14 0.211-0.14 0.338 0 0.888-0.353 1.739-0.981 2.367s-1.479 0.981-2.367 0.981-1.739-0.353-2.367-0.981c-0.628-0.628-0.981-1.479-0.981-2.367 0-0.127-0.050-0.248-0.14-0.338s-0.211-0.14-0.338-0.14-0.248 0.050-0.338 0.14c-0.090 0.090-0.14 0.211-0.14 0.338 0 0.448-0.089 0.891-0.264 1.303s-0.429 0.786-0.75 1.098c-0.321 0.312-0.701 0.557-1.118 0.719s-0.863 0.24-1.31 0.227c-1.793-0.049-3.253-1.587-3.253-3.427v-2.791c0-0.381 0.151-0.745 0.42-1.015s0.634-0.42 1.015-0.42h19.13c0.381 0 0.745 0.151 1.015 0.42s0.42 0.634 0.42 1.015v2.79z"></path>
</symbol>
<symbol id="icon-checkmark" viewBox="0 0 32 32">
<path fill="#eabfc0" style="fill: var(--color2, #eabfc0)" d="M13 24l-9-9 1.414-1.414 7.586 7.585 13.586-13.585 1.414 1.414-15 15z"></path>
</symbol>
<symbol id="icon-star-3" viewBox="0 0 32 32">
<path fill="#f5a623" style="fill: var(--color1, #f5a623)" d="M12.8 20.867l3.2-2.467 3.2 2.467-1.2-4.067 3-2.133h-3.733l-1.267-4.133-1.267 4.133h-3.733l3 2.133-1.2 4.067zM16 20.093l-4.036 3.073c-0.142 0.098-0.285 0.141-0.428 0.129s-0.275-0.052-0.395-0.121c-0.12-0.069-0.211-0.174-0.273-0.313s-0.064-0.288-0.004-0.444l1.541-5.064-3.833-2.767c-0.148-0.092-0.242-0.21-0.283-0.353s-0.034-0.286 0.021-0.428c0.055-0.142 0.138-0.256 0.248-0.343s0.244-0.129 0.403-0.129h4.813l1.573-5.169c0.060-0.157 0.148-0.281 0.261-0.371s0.243-0.133 0.391-0.133c0.147 0 0.278 0.044 0.391 0.133 0.114 0.090 0.201 0.213 0.261 0.371l1.573 5.169h4.813c0.157 0 0.292 0.043 0.403 0.129s0.194 0.2 0.248 0.343c0.054 0.142 0.061 0.285 0.021 0.428-0.042 0.144-0.136 0.262-0.283 0.355l-3.833 2.765 1.541 5.064c0.059 0.157 0.058 0.305-0.004 0.444s-0.153 0.243-0.273 0.313c-0.12 0.070-0.252 0.111-0.395 0.121s-0.286-0.032-0.428-0.129l-4.036-3.073z"></path>
</symbol>
<symbol id="icon-burger-menu" viewBox="0 0 31 32">
<path d="M0 10.909h31.273v1.455h-31.273v-1.455z"></path>
<path d="M0 15.273h31.273v1.455h-31.273v-1.455z"></path>
<path d="M0 19.636h31.273v1.455h-31.273v-1.455z"></path>
</symbol>
</defs>
</svg>
